# xmcd
#
# Track frame offsets:
#	150
#	23390
#	43467
#	64990
#	86477
#	106697
#	123902
#	144440
#	163842
#	177507
#	193825
#	212567
#
# Disc length: 3065 seconds
#
# Revision: 4
# Processed by: cddbd v1.5.2PL0 Copyright (c) Steve Scherf et al.
# Submitted via: EasyCDDAExtractor 15.3.0.1
#
DISCID=a60bf70c
DTITLE=Victor Manuelle - Travesia
DYEAR=2004
DGENRE=Latin
TTITLE0=Llore Llore
TTITLE1=Tengo Ganas (Salsa)
TTITLE2=Pero Quien
TTITLE3=Te Propongo
TTITLE4=Amarte Es (Salsa)
TTITLE5=No Me Hace Falta
TTITLE6=Si Me Preguntan
TTITLE7=Tengo Ganas (Balada)
TTITLE8=Yo Te Dare
TTITLE9=No Te Dije
TTITLE10=Contigo
TTITLE11=Amarte Es (Balada)
EXTD=YEAR: 2004
EXTT0=
EXTT1=
EXTT2=
EXTT3=
EXTT4=
EXTT5=
EXTT6=
EXTT7=
EXTT8=
EXTT9=
EXTT10=
EXTT11=
PLAYORDER=
